<svg xmlns="http://www.w3.org/2000/svg" xmlns:xlink="http://www.w3.org/1999/xlink" width="2000" zoomAndPan="magnify" viewBox="0 0 1500 1499.999933" height="2000" preserveAspectRatio="xMidYMid meet" version="1.0"><defs><clipPath id="fae9dbb3a8"><path d="M 0.472656 18.847656 L 502.390625 18.847656 L 502.390625 1426 L 0.472656 1426 Z M 0.472656 18.847656 " clip-rule="nonzero"/></clipPath><clipPath id="8ecfece31c"><path d="M 2.007812 18.847656 L 500.855469 18.847656 C 501.261719 18.847656 501.652344 19.007812 501.941406 19.296875 C 502.230469 19.585938 502.390625 19.976562 502.390625 20.382812 L 502.390625 1423.769531 C 502.390625 1424.179688 502.230469 1424.570312 501.941406 1424.855469 C 501.652344 1425.144531 501.261719 1425.308594 500.855469 1425.308594 L 2.007812 1425.308594 C 1.601562 1425.308594 1.210938 1425.144531 0.921875 1424.855469 C 0.632812 1424.570312 0.472656 1424.179688 0.472656 1423.769531 L 0.472656 20.382812 C 0.472656 19.976562 0.632812 19.585938 0.921875 19.296875 C 1.210938 19.007812 1.601562 18.847656 2.007812 18.847656 Z M 2.007812 18.847656 " clip-rule="nonzero"/></clipPath><clipPath id="9b40fc5cca"><path d="M 0.472656 0.847656 L 502.390625 0.847656 L 502.390625 1407 L 0.472656 1407 Z M 0.472656 0.847656 " clip-rule="nonzero"/></clipPath><clipPath id="ad40cdd36a"><path d="M 2.007812 0.847656 L 500.855469 0.847656 C 501.261719 0.847656 501.652344 1.007812 501.941406 1.296875 C 502.230469 1.585938 502.390625 1.976562 502.390625 2.382812 L 502.390625 1405.769531 C 502.390625 1406.179688 502.230469 1406.570312 501.941406 1406.855469 C 501.652344 1407.144531 501.261719 1407.308594 500.855469 1407.308594 L 2.007812 1407.308594 C 1.601562 1407.308594 1.210938 1407.144531 0.921875 1406.855469 C 0.632812 1406.570312 0.472656 1406.179688 0.472656 1405.769531 L 0.472656 2.382812 C 0.472656 1.976562 0.632812 1.585938 0.921875 1.296875 C 1.210938 1.007812 1.601562 0.847656 2.007812 0.847656 Z M 2.007812 0.847656 " clip-rule="nonzero"/></clipPath><clipPath id="509fca273e"><rect x="0" width="503" y="0" height="1408"/></clipPath><clipPath id="ac484f5c7a"><path d="M 502.390625 17.351562 L 931.613281 17.351562 L 931.613281 1424 L 502.390625 1424 Z M 502.390625 17.351562 " clip-rule="nonzero"/></clipPath><clipPath id="a0f8ed86e1"><path d="M 503.925781 17.351562 L 930.078125 17.351562 C 930.925781 17.351562 931.613281 18.039062 931.613281 18.886719 L 931.613281 1422.273438 C 931.613281 1423.125 930.925781 1423.8125 930.078125 1423.8125 L 503.925781 1423.8125 C 503.078125 1423.8125 502.390625 1423.125 502.390625 1422.273438 L 502.390625 18.886719 C 502.390625 18.039062 503.078125 17.351562 503.925781 17.351562 Z M 503.925781 17.351562 " clip-rule="nonzero"/></clipPath><clipPath id="cbe11df983"><path d="M 0.390625 0.351562 L 429.613281 0.351562 L 429.613281 1406.917969 L 0.390625 1406.917969 Z M 0.390625 0.351562 " clip-rule="nonzero"/></clipPath><clipPath id="e03cf63b4d"><path d="M 1.925781 0.351562 L 428.078125 0.351562 C 428.925781 0.351562 429.613281 1.039062 429.613281 1.886719 L 429.613281 1405.273438 C 429.613281 1406.125 428.925781 1406.8125 428.078125 1406.8125 L 1.925781 1406.8125 C 1.078125 1406.8125 0.390625 1406.125 0.390625 1405.273438 L 0.390625 1.886719 C 0.390625 1.039062 1.078125 0.351562 1.925781 0.351562 Z M 1.925781 0.351562 " clip-rule="nonzero"/></clipPath><clipPath id="10644db247"><rect x="0" width="430" y="0" height="1407"/></clipPath><clipPath id="ec402d0df7"><path d="M 906 0 L 1473.800781 0 L 1473.800781 1444 L 906 1444 Z M 906 0 " clip-rule="nonzero"/></clipPath><clipPath id="417270375f"><path d="M 905.03125 52.984375 L 1261 -1.390625 L 1473.625 1390.628906 L 1117.65625 1445.003906 Z M 905.03125 52.984375 " clip-rule="nonzero"/></clipPath><clipPath id="dfa918ee6c"><path d="M 908.148438 53.925781 L 1259.695312 0.226562 C 1260.097656 0.164062 1260.507812 0.265625 1260.835938 0.507812 C 1261.164062 0.75 1261.382812 1.109375 1261.445312 1.511719 L 1473.296875 1388.46875 C 1473.359375 1388.871094 1473.257812 1389.28125 1473.015625 1389.609375 C 1472.773438 1389.9375 1472.414062 1390.15625 1472.011719 1390.21875 L 1120.460938 1443.917969 C 1120.058594 1443.976562 1119.648438 1443.878906 1119.320312 1443.636719 C 1118.992188 1443.394531 1118.773438 1443.035156 1118.710938 1442.628906 L 906.859375 55.675781 C 906.800781 55.273438 906.898438 54.863281 907.140625 54.535156 C 907.382812 54.203125 907.746094 53.984375 908.148438 53.925781 Z M 908.148438 53.925781 " clip-rule="nonzero"/></clipPath><clipPath id="6f0f5ee69d"><path d="M 0.679688 0 L 567.558594 0 L 567.558594 1444 L 0.679688 1444 Z M 0.679688 0 " clip-rule="nonzero"/></clipPath><clipPath id="1e9739ac40"><path d="M -0.96875 52.984375 L 355 -1.390625 L 567.625 1390.628906 L 211.65625 1445.003906 Z M -0.96875 52.984375 " clip-rule="nonzero"/></clipPath><clipPath id="73e664f985"><path d="M 2.148438 53.925781 L 353.695312 0.226562 C 354.097656 0.164062 354.507812 0.265625 354.835938 0.507812 C 355.164062 0.75 355.382812 1.109375 355.445312 1.511719 L 567.296875 1388.46875 C 567.359375 1388.871094 567.257812 1389.28125 567.015625 1389.609375 C 566.773438 1389.9375 566.414062 1390.15625 566.011719 1390.21875 L 214.460938 1443.917969 C 214.058594 1443.976562 213.648438 1443.878906 213.320312 1443.636719 C 212.992188 1443.394531 212.773438 1443.035156 212.710938 1442.628906 L 0.859375 55.675781 C 0.800781 55.273438 0.898438 54.863281 1.140625 54.535156 C 1.382812 54.203125 1.746094 53.984375 2.148438 53.925781 Z M 2.148438 53.925781 " clip-rule="nonzero"/></clipPath><clipPath id="168dc0c4a5"><rect x="0" width="568" y="0" height="1444"/></clipPath><clipPath id="e0b54c8d2c"><rect x="0" width="1474" y="0" height="1445"/></clipPath></defs><g transform="matrix(1, 0, 0, 1, 13, 0.000000000000112861)"><g clip-path="url(#e0b54c8d2c)"><g clip-path="url(#fae9dbb3a8)"><g clip-path="url(#8ecfece31c)"><g transform="matrix(1, 0, 0, 1, 0, 18)"><g clip-path="url(#509fca273e)"><g clip-path="url(#9b40fc5cca)"><g clip-path="url(#ad40cdd36a)"><path fill="#ef2346" d="M 0.472656 0.847656 L 502.390625 0.847656 L 502.390625 1406.609375 L 0.472656 1406.609375 Z M 0.472656 0.847656 " fill-opacity="1" fill-rule="nonzero"/></g></g></g></g></g></g><g clip-path="url(#ac484f5c7a)"><g clip-path="url(#a0f8ed86e1)"><g transform="matrix(1, 0, 0, 1, 502, 17)"><g clip-path="url(#10644db247)"><g clip-path="url(#cbe11df983)"><g clip-path="url(#e03cf63b4d)"><path fill="#7073ee" d="M 0.390625 0.351562 L 429.613281 0.351562 L 429.613281 1407.066406 L 0.390625 1407.066406 Z M 0.390625 0.351562 " fill-opacity="1" fill-rule="nonzero"/></g></g></g></g></g></g><g clip-path="url(#ec402d0df7)"><g clip-path="url(#417270375f)"><g clip-path="url(#dfa918ee6c)"><g transform="matrix(1, 0, 0, 1, 906, 0.000000000000112861)"><g clip-path="url(#168dc0c4a5)"><g clip-path="url(#6f0f5ee69d)"><g clip-path="url(#1e9739ac40)"><g clip-path="url(#73e664f985)"><path fill="#faba26" d="M 0.628906 54.15625 L 355.214844 -0.00390625 L 567.625 1390.628906 L 213.042969 1444.792969 Z M 0.628906 54.15625 " fill-opacity="1" fill-rule="nonzero"/></g></g></g></g></g></g></g></g></g></g></svg>